<svg xmlns="http://www.w3.org/2000/svg" xmlns:xlink="http://www.w3.org/1999/xlink" width="75" height="75" viewBox="0 0 75 75">
  <defs>
    <clipPath id="clip-path">
      <rect id="長方形_235" data-name="長方形 235" width="75" height="75" transform="translate(-2802 10023)" fill="#fff"/>
    </clipPath>
    <linearGradient id="linear-gradient" x1="0.029" y1="0.5" x2="1" y2="0.5" gradientUnits="objectBoundingBox">
      <stop offset="0" stop-color="#f0f7fd"/>
      <stop offset="1" stop-color="#fffbe3"/>
    </linearGradient>
    <linearGradient id="linear-gradient-2" x1="0" y1="0.582" y2="0.571" xlink:href="#linear-gradient"/>
  </defs>
  <g id="iocn-features03" transform="translate(2802 -10023)" clip-path="url(#clip-path)">
    <g id="グループ_58" data-name="グループ 58" transform="translate(-7.291 10922.018)">
      <path id="パス_47" data-name="パス 47" d="M-6200.709-1675.868h64.725v5.245h-64.725Z" transform="translate(3411 815.098)" stroke="#393939" stroke-linecap="round" stroke-width="2" fill="url(#linear-gradient)"/>
      <path id="パス_48" data-name="パス 48" d="M6.374-7.285c1.779,0,6.374,9.045,6.374,12.565A6.374,6.374,0,0,1,0,5.28C0,1.76,4.6-7.285,6.374-7.285Z" transform="translate(-2784 -881.654)" stroke="#393939" stroke-linecap="round" stroke-width="2" fill="url(#linear-gradient-2)"/>
      <path id="パス_49" data-name="パス 49" d="M8.446-7.285c2.357,0,8.446,11.985,8.446,16.65A8.446,8.446,0,0,1,0,9.365C0,4.7,6.089-7.285,8.446-7.285Z" transform="translate(-2765.793 -884.733)" stroke="#393939" stroke-linecap="round" stroke-width="2" fill="url(#linear-gradient-2)"/>
      <path id="パス_50" data-name="パス 50" d="M6.374-7.285c1.779,0,6.374,9.045,6.374,12.565A6.374,6.374,0,0,1,0,5.28C0,1.76,4.6-7.285,6.374-7.285Z" transform="translate(-2743.441 -880.654)" stroke="#393939" stroke-linecap="round" stroke-width="2" fill="url(#linear-gradient-2)"/>
      <path id="_-Primary-Color" data-name="🔹-Primary-Color" d="M56.364,8.012c-2.3-1.117-4.638-2.352-8.3-2.352S42.1,6.895,39.8,8.012a16.7,16.7,0,0,1-7.09,1.764,15.734,15.734,0,0,1-7.213-1.764c-2.3-1.088-4.446-2.352-8.14-2.352S11.738,6.895,9.435,8.012A17.753,17.753,0,0,1,2,9.776V11.59a19.269,19.269,0,0,0,9.059-2.352,12.847,12.847,0,0,1,6.3-1.764,12.254,12.254,0,0,1,6.3,1.764,18.625,18.625,0,0,0,9.059,2.352,18.956,18.956,0,0,0,9.059-2.352,13.268,13.268,0,0,1,6.3-1.764,12.083,12.083,0,0,1,6.3,1.764,18.725,18.725,0,0,0,9.059,2.352V9.718A15.78,15.78,0,0,1,56.364,8.012Z" transform="translate(-2790.054 -858.394)" fill="#393939" fill-rule="evenodd"/>
      <path id="_-Primary-Color-2" data-name="🔹-Primary-Color" d="M56.364,8.012c-2.3-1.117-4.638-2.352-8.3-2.352S42.1,6.895,39.8,8.012a16.7,16.7,0,0,1-7.09,1.764,15.734,15.734,0,0,1-7.213-1.764c-2.3-1.088-4.446-2.352-8.14-2.352S11.738,6.895,9.435,8.012A17.753,17.753,0,0,1,2,9.776V11.59a19.269,19.269,0,0,0,9.059-2.352,12.847,12.847,0,0,1,6.3-1.764,12.254,12.254,0,0,1,6.3,1.764,18.625,18.625,0,0,0,9.059,2.352,18.956,18.956,0,0,0,9.059-2.352,13.268,13.268,0,0,1,6.3-1.764,12.083,12.083,0,0,1,6.3,1.764,18.725,18.725,0,0,0,9.059,2.352V9.718A15.78,15.78,0,0,1,56.364,8.012Z" transform="translate(-2790.054 -853.789)" fill="#393939" fill-rule="evenodd"/>
      <path id="_-Primary-Color-3" data-name="🔹-Primary-Color" d="M56.364,8.012c-2.3-1.117-4.638-2.352-8.3-2.352S42.1,6.895,39.8,8.012a16.7,16.7,0,0,1-7.09,1.764,15.734,15.734,0,0,1-7.213-1.764c-2.3-1.088-4.446-2.352-8.14-2.352S11.738,6.895,9.435,8.012A17.753,17.753,0,0,1,2,9.776V11.59a19.269,19.269,0,0,0,9.059-2.352,12.847,12.847,0,0,1,6.3-1.764,12.254,12.254,0,0,1,6.3,1.764,18.625,18.625,0,0,0,9.059,2.352,18.956,18.956,0,0,0,9.059-2.352,13.268,13.268,0,0,1,6.3-1.764,12.083,12.083,0,0,1,6.3,1.764,18.725,18.725,0,0,0,9.059,2.352V9.718A15.78,15.78,0,0,1,56.364,8.012Z" transform="translate(-2790.054 -844.579)" fill="#393939" fill-rule="evenodd"/>
      <path id="_-Primary-Color-4" data-name="🔹-Primary-Color" d="M56.364,8.012c-2.3-1.117-4.638-2.352-8.3-2.352S42.1,6.895,39.8,8.012a16.7,16.7,0,0,1-7.09,1.764,15.734,15.734,0,0,1-7.213-1.764c-2.3-1.088-4.446-2.352-8.14-2.352S11.738,6.895,9.435,8.012A17.753,17.753,0,0,1,2,9.776V11.59a19.269,19.269,0,0,0,9.059-2.352,12.847,12.847,0,0,1,6.3-1.764,12.254,12.254,0,0,1,6.3,1.764,18.625,18.625,0,0,0,9.059,2.352,18.956,18.956,0,0,0,9.059-2.352,13.268,13.268,0,0,1,6.3-1.764,12.083,12.083,0,0,1,6.3,1.764,18.725,18.725,0,0,0,9.059,2.352V9.718A15.78,15.78,0,0,1,56.364,8.012Z" transform="translate(-2790.054 -849.184)" fill="#393939" fill-rule="evenodd"/>
    </g>
  </g>
</svg>
