<svg xmlns="http://www.w3.org/2000/svg" xmlns:xlink="http://www.w3.org/1999/xlink" width="65" height="54.512" viewBox="0 0 65 54.512">
  <defs>
    <linearGradient id="linear-gradient" y1="0.5" x2="1" y2="0.5" gradientUnits="objectBoundingBox">
      <stop offset="0" stop-color="#f0f7fd"/>
      <stop offset="0.605" stop-color="#f9f9ed"/>
      <stop offset="1" stop-color="#fffbe3"/>
    </linearGradient>
  </defs>
  <g id="iocn-features07" transform="translate(-794 806.87)">
    <g id="パス_59" data-name="パス 59" transform="translate(813.743 -790.358)" fill="none" stroke-linecap="round">
      <path d="M14.261,0c16.618,0,31,19,31,19s-14.208,19-31,19-34-19-34-19S-2.357,0,14.261,0Z" stroke="none"/>
      <path d="M 14.26090812683105 2 C 10.76485824584961 2 6.906108856201172 2.934459686279297 2.791837692260742 4.777431488037109 C -0.5794525146484375 6.287590026855469 -4.117851257324219 8.403039932250977 -7.725063323974609 11.06502914428711 C -11.91658401489258 14.15822792053223 -15.23435592651367 17.2859992980957 -16.96064376831055 19.00593757629395 C -15.24736785888672 20.72634696960449 -11.95706939697266 23.84926223754883 -7.785320281982422 26.93787956237793 C -4.191671371459961 29.59848976135254 -0.6573810577392578 31.712890625 2.719388961791992 33.22232818603516 C 6.842628479003906 35.06546020507812 10.72575759887695 36 14.26090812683105 36 C 17.77383804321289 36 21.47971725463867 35.07481002807617 25.2756175994873 33.25014114379883 C 28.38432884216309 31.75580024719238 31.55574798583984 29.66117095947266 34.70179748535156 27.02444076538086 C 38.46227264404297 23.87274169921875 41.29396820068359 20.68281936645508 42.68987274169922 19.00568199157715 C 41.29240417480469 17.34107780456543 38.46553039550781 14.18127250671387 34.70661926269531 11.0333309173584 C 31.53970718383789 8.381160736083984 28.35609817504883 6.273670196533203 25.24421882629395 4.769401550292969 C 21.44269752502441 2.931758880615234 17.74737739562988 2 14.26090812683105 2 M 14.26090812683105 0 C 30.87850761413574 0 45.25732803344727 19 45.25732803344727 19 C 45.25732803344727 19 31.04915809631348 38 14.26090812683105 38 C -2.527351379394531 38 -19.74268341064453 19 -19.74268341064453 19 C -19.74268341064453 19 -2.356691360473633 0 14.26090812683105 0 Z" stroke="none" fill="#393939"/>
    </g>
    <circle id="楕円形_21" data-name="楕円形 21" cx="15" cy="15" r="15" transform="translate(811.5 -788.358)" stroke="#393939" stroke-linecap="round" stroke-width="2" fill="url(#linear-gradient)"/>
    <path id="パス_60" data-name="パス 60" d="M-7379.459-1679.24l5.533,5.533,11.881-10.276" transform="translate(8201.053 878.524)" fill="none" stroke="#393939" stroke-linecap="round" stroke-width="2"/>
    <circle id="楕円形_22" data-name="楕円形 22" cx="6.68" cy="6.68" r="6.68" transform="translate(816.942 -783.358)" fill="#fff" stroke="#393939" stroke-linecap="round" stroke-width="2"/>
  </g>
</svg>
