<svg xmlns="http://www.w3.org/2000/svg" xmlns:xlink="http://www.w3.org/1999/xlink" width="56.843" height="67.362" viewBox="0 0 56.843 67.362">
  <defs>
    <linearGradient id="linear-gradient" y1="0.5" x2="1" y2="0.5" gradientUnits="objectBoundingBox">
      <stop offset="0" stop-color="#f0f7fd"/>
      <stop offset="1" stop-color="#fffbe3"/>
    </linearGradient>
    <linearGradient id="linear-gradient-2" y1="0" y2="0" xlink:href="#linear-gradient"/>
  </defs>
  <g id="iocn-features08" transform="translate(7113.663 1683.642)">
    <g id="グループ_27" data-name="グループ 27" transform="translate(-143)">
      <path id="パス_63" data-name="パス 63" d="M75.883,50a25.883,25.883,0,1,0,25.883,25.883A25.883,25.883,0,0,0,75.883,50Z" transform="translate(-7018.124 -1732.642)" stroke="#393939" stroke-linecap="round" stroke-width="2" fill="url(#linear-gradient)"/>
      <g id="楕円形_47" data-name="楕円形 47" transform="translate(-6960.241 -1675.28)" fill="#fff" stroke="#707070" stroke-width="1">
        <circle cx="18" cy="18" r="18" stroke="none"/>
        <circle cx="18" cy="18" r="17.5" fill="none"/>
      </g>
      <g id="グループ_26" data-name="グループ 26" transform="translate(-0.412 0.83)">
        <g id="前面オブジェクトで型抜き_4" data-name="前面オブジェクトで型抜き 4" transform="translate(-6958.067 -1674.067)" fill="none">
          <path d="M22.928,30.982h0l-3.879-6.322a4,4,0,0,0-6.818,0L8.572,30.62a16.252,16.252,0,0,1-4.3-3.28l4.643-4.4a4,4,0,0,0-1.716-6.766L0,14.245A16.125,16.125,0,0,1,1.3,9.594l7.623,2.042a4.092,4.092,0,0,0,1.055.14,4.012,4.012,0,0,0,3.194-1.62,3.954,3.954,0,0,0,.622-3.522L11.977.532a16.358,16.358,0,0,1,8.278,0l-1.811,6.1a3.955,3.955,0,0,0,.622,3.523,4.011,4.011,0,0,0,3.192,1.62,4.1,4.1,0,0,0,1.056-.14l7.623-2.042a16.126,16.126,0,0,1,1.3,4.651l-7.194,1.928a4,4,0,0,0-1.716,6.766l4.643,4.4a16.2,16.2,0,0,1-5.037,3.641Z" stroke="none"/>
          <path d="M 22.92814445495605 30.98199462890625 L 22.92895317077637 30.98162460327148 C 24.83064460754395 30.10151481628418 26.52523422241211 28.8768138885498 27.96561431884766 27.34013366699219 L 23.32259368896484 22.93920516967773 C 22.25670433044434 21.92908477783203 21.83587455749512 20.47631454467773 22.19688415527344 19.05304527282715 C 22.55790328979492 17.62965393066406 23.62033462524414 16.55299377441406 25.03889465332031 16.17299461364746 L 32.23296356201172 14.24501419067383 C 32.03599548339844 12.63593482971191 31.60037422180176 11.07126426696777 30.93704414367676 9.593904495239258 L 23.31450462341309 11.63609409332275 C 22.9655647277832 11.72925472259521 22.61020469665527 11.77649402618408 22.25831413269043 11.77649402618408 C 21.01651382446289 11.77649402618408 19.82324409484863 11.17094421386719 19.06631469726562 10.15663433074951 C 18.30815315246582 9.140664100646973 18.08154487609863 7.856684684753418 18.44459342956543 6.633894443511963 L 20.25566482543945 0.532354474067688 C 18.91151428222656 0.1791044473648071 17.51882362365723 -5.546569809666835e-06 16.11630439758301 -5.546569809666835e-06 C 14.71525382995605 -5.546569809666835e-06 13.3229341506958 0.1786844581365585 11.97729396820068 0.5323344469070435 L 13.788893699646 6.633894443511963 C 14.15189361572266 7.856534481048584 13.92534351348877 9.140334129333496 13.16732406616211 10.15611457824707 C 12.41016387939453 11.17074489593506 11.2163143157959 11.77649402618408 9.973793983459473 11.77649402618408 C 9.622814178466797 11.77649402618408 9.267924308776855 11.72925472259521 8.918993949890137 11.63609409332275 L 1.295783877372742 9.593724250793457 C 0.6332139372825623 11.06928443908691 0.1968839317560196 12.63375473022461 -0.000336065684678033 14.24478435516357 L 7.194593906402588 16.17299461364746 C 8.613153457641602 16.55299377441406 9.675583839416504 17.62965393066406 10.0366039276123 19.05304527282715 C 10.39761352539062 20.4763240814209 9.976783752441406 21.9290943145752 8.910894393920898 22.93920516967773 L 4.267573833465576 27.34042358398438 C 5.513864040374756 28.66998481750488 6.96161413192749 29.7735538482666 8.571924209594727 30.62009429931641 L 12.23009395599365 24.65910530090332 C 12.96299362182617 23.46423530578613 14.23733425140381 22.75087356567383 15.63895416259766 22.75087356567383 C 17.04058456420898 22.75087356567383 18.3151741027832 23.46423530578613 19.04849433898926 24.65910530090332 L 22.92814445495605 30.98199462890625 M 22.14008331298828 33.54075622558594 L 21.21955680847168 32.02158737182617 L 17.34381484985352 25.70507431030273 C 16.97168350219727 25.09872436523438 16.35024452209473 24.75087356567383 15.63895416259766 24.75087356567383 C 14.92788410186768 24.75087356567383 14.30679416656494 25.09857368469238 13.93494415283203 25.70481491088867 L 9.297714233398438 33.26116561889648 L 7.641283988952637 32.39038467407227 C 5.834243774414062 31.44041442871094 4.208223819732666 30.2015552520752 2.808403968811035 28.70820426940918 L 1.448203921318054 27.25712394714355 L 7.535024166107178 21.4876537322998 C 8.076013565063477 20.97498512268066 8.281153678894043 20.26687431335449 8.097993850708008 19.54476356506348 C 7.914803981781006 18.82251358032227 7.396903991699219 18.29770469665527 6.677083969116211 18.10488510131836 L -2.196686029434204 15.72674465179443 L -1.98551607131958 14.00176429748535 C -1.764066100120544 12.19277477264404 -1.273926019668579 10.43405437469482 -0.5287260413169861 8.77446460723877 L 0.1687239408493042 7.221234321594238 L 9.43657398223877 9.704224586486816 C 9.615623474121094 9.752034187316895 9.796934127807617 9.776494026184082 9.973793983459473 9.776494026184082 C 10.58826351165771 9.776494026184082 11.18289375305176 9.471254348754883 11.56443405151367 8.95997428894043 C 11.94677352905273 8.447634696960449 12.05586433410645 7.823704242706299 11.87161350250244 7.203134536743164 L 9.472474098205566 -0.8772855401039124 L 11.46893405914307 -1.401975512504578 C 12.97884368896484 -1.798795580863953 14.54244422912598 -2.000005483627319 16.11630439758301 -2.000005483627319 C 17.6903133392334 -2.000005483627319 19.25402450561523 -1.798795580863953 20.76401329040527 -1.401965498924255 L 22.76033401489258 -0.8773155212402344 L 20.36191368103027 7.202994346618652 C 20.17758369445801 7.823854446411133 20.28672409057617 8.447954177856445 20.66920471191406 8.960494041442871 C 21.05049324035645 9.471444129943848 21.64456367492676 9.776494026184082 22.25831413269043 9.776494026184082 C 22.43609428405762 9.776494026184082 22.61787414550781 9.75202465057373 22.79861450195312 9.703774452209473 L 32.06414413452148 7.221404552459717 L 32.76157379150391 8.774694442749023 C 33.50661468505859 10.43404483795166 33.99667358398438 12.19276428222656 34.21814346313477 14.00200462341309 L 34.42930221557617 15.72698402404785 L 25.55661392211914 18.10482406616211 C 24.83658409118652 18.29770469665527 24.31868362426758 18.82251358032227 24.1355037689209 19.54474449157715 C 23.95233345031738 20.26687431335449 24.15747451782227 20.97497367858887 24.69832420349121 21.48752403259277 L 30.78496360778809 27.25680351257324 L 29.42481422424316 28.70788383483887 C 27.80866432189941 30.43208503723145 25.90576362609863 31.8077449798584 23.76896476745605 32.79666519165039 L 23.75994300842285 32.80081558227539 L 22.14008331298828 33.54075622558594 Z" stroke="none" fill="#393939"/>
        </g>
        <circle id="楕円形_24" data-name="楕円形 24" cx="17.67" cy="17.67" r="17.67" transform="translate(-6959.5 -1675.5)" fill="none" stroke="#393939" stroke-width="2"/>
      </g>
      <path id="パス_65" data-name="パス 65" d="M53.675,50a3.675,3.675,0,1,0,3.675,3.675A3.675,3.675,0,0,0,53.675,50Z" transform="translate(-6995.916 -1710.433)" fill="none" stroke="#393939" stroke-linecap="round" stroke-width="2"/>
    </g>
    <path id="パス_66" data-name="パス 66" d="M-6200.709-1675.868h54.843v5.245h-54.843Z" transform="translate(-911.954 44.992)" stroke="#393939" stroke-linecap="round" stroke-width="2" fill="url(#linear-gradient-2)"/>
    <path id="パス_67" data-name="パス 67" d="M-6200.709-1675.868h54.843v8.351h-54.843Z" transform="translate(-911.954 50.237)" stroke="#393939" stroke-linecap="round" stroke-width="2" fill="url(#linear-gradient-2)"/>
  </g>
</svg>
