<svg xmlns="http://www.w3.org/2000/svg" xmlns:xlink="http://www.w3.org/1999/xlink" width="68.445" height="60.325" viewBox="0 0 68.445 60.325">
  <defs>
    <linearGradient id="linear-gradient" y1="0.431" x2="0.953" y2="0.432" gradientUnits="objectBoundingBox">
      <stop offset="0" stop-color="#f0f7fd"/>
      <stop offset="1" stop-color="#fffbe3"/>
    </linearGradient>
  </defs>
  <g id="iocn-features11" transform="translate(-5378.641 832.776)">
    <g id="パス_91" data-name="パス 91" transform="translate(5395.82 -832.776)" fill="url(#linear-gradient)">
      <path d="M 24.74967765808105 40.20217895507812 L 8.988842010498047 40.20217895507812 C 8.962964057922363 39.52217102050781 8.895096778869629 38.55987167358398 8.725382804870605 37.47964859008789 C 8.280852317810059 34.65019607543945 7.382502555847168 32.45570755004883 6.055302619934082 30.95715713500977 C 3.98221230506897 28.62009811401367 2.665772438049316 26.41497802734375 1.911872386932373 24.01693725585938 C 1.272712349891663 21.98387718200684 1.000002384185791 19.72847747802734 1.000002384185791 16.47543716430664 C 1.000002384185791 12.34822750091553 2.664532423019409 8.466217994689941 5.686962604522705 5.544527530670166 C 8.718602180480957 2.613947629928589 12.75178241729736 0.9999975562095642 17.04355239868164 0.9999975562095642 C 21.33532333374023 0.9999975562095642 25.36850166320801 2.613947629928589 28.40014266967773 5.544527530670166 C 31.42257308959961 8.466217994689941 33.08710098266602 12.34822750091553 33.08710098266602 16.47543716430664 C 33.08710098266602 22.2187671661377 32.30400085449219 25.67318725585938 27.66324234008789 30.96050834655762 C 25.27178764343262 33.68513107299805 24.82548332214355 38.18230819702148 24.74967765808105 40.20217895507812 Z" stroke="none"/>
      <path d="M 17.04355239868164 1.999996185302734 C 13.01251220703125 1.999996185302734 9.226161956787109 3.514148712158203 6.381992340087891 6.263519287109375 C 3.556222915649414 8.995098114013672 2.000003814697266 12.62175750732422 2.000003814697266 16.47543716430664 C 2.000003814697266 22.04867744445801 2.742813110351562 25.71591758728027 6.803913116455078 30.29414749145508 C 8.259773254394531 31.93796730041504 9.238622665405273 34.30329895019531 9.713272094726562 37.32444763183594 C 9.820442199707031 38.00658416748047 9.888668060302734 38.64550018310547 9.931808471679688 39.20217895507812 L 23.80835342407227 39.20217895507812 C 23.85152053833008 38.64604949951172 23.91959381103516 38.00763320922852 24.0262336730957 37.32608795166016 C 24.49848175048828 34.30781555175781 25.46928215026855 31.94418716430664 26.91166305541992 30.30084800720215 C 29.13093185424805 27.77239799499512 30.45338249206543 25.66623687744141 31.19963264465332 23.47176742553711 C 31.93618202209473 21.30583763122559 32.08710098266602 19.10843849182129 32.08710098266602 16.47543716430664 C 32.08710098266602 12.62175750732422 30.53088188171387 8.995098114013672 27.70511245727539 6.263519287109375 C 24.86094284057617 3.514148712158203 21.07459259033203 1.999996185302734 17.04355239868164 1.999996185302734 M 17.04355239868164 -3.814697265625e-06 C 26.45644187927246 -3.814697265625e-06 34.08710098266602 7.376308441162109 34.08710098266602 16.47543716430664 C 34.08710098266602 22.25337791442871 33.32732391357422 26.02322769165039 28.41479301452637 31.62016677856445 C 25.54973220825195 34.8843994140625 25.73838233947754 41.20217895507812 25.73838233947754 41.20217895507812 L 8.000791549682617 41.20217895507812 C 8.000791549682617 41.20217895507812 8.196722030639648 34.88331604003906 5.306692123413086 31.62016677856445 C 0.7855224609375 26.52328872680664 3.814697265625e-06 22.2897777557373 3.814697265625e-06 16.47543716430664 C 3.814697265625e-06 7.376308441162109 7.63066291809082 -3.814697265625e-06 17.04355239868164 -3.814697265625e-06 Z" stroke="none" fill="#393939"/>
    </g>
    <path id="パス_92" data-name="パス 92" d="M5401.971-790.958l15.645-2.628" transform="translate(2.905 5.457)" fill="none" stroke="#393939" stroke-linecap="round" stroke-width="2"/>
    <path id="パス_93" data-name="パス 93" d="M5401.971-790.958l15.645-2.628" transform="translate(2.905 10.002)" fill="none" stroke="#393939" stroke-linecap="round" stroke-width="2"/>
    <g id="パス_94" data-name="パス 94" transform="translate(3.437 6.978)" fill="none">
      <path d="M5405.871-783.424h7.215s.091,1.994-3.63,1.994S5405.871-783.424,5405.871-783.424Z" stroke="none"/>
      <path d="M 5405.87109375 -783.4239501953125 C 5405.87109375 -783.4239501953125 5405.73486328125 -781.4300537109375 5409.4560546875 -781.4300537109375 C 5413.17724609375 -781.4300537109375 5413.08642578125 -783.4239501953125 5413.08642578125 -783.4239501953125 L 5405.87109375 -783.4239501953125 M 5404.0029296875 -785.4239501953125 L 5414.99755859375 -785.4239501953125 L 5415.08447265625 -783.5149536132812 C 5415.11474609375 -782.84375 5414.86279296875 -781.8287353515625 5414.064453125 -780.9928588867188 C 5413.07373046875 -779.9558715820312 5411.52294921875 -779.4300537109375 5409.4560546875 -779.4300537109375 C 5407.380859375 -779.4300537109375 5405.83251953125 -779.9610595703125 5404.8544921875 -781.0084228515625 C 5404.0625 -781.8566284179688 5403.82958984375 -782.8828125 5403.8759765625 -783.560302734375 L 5404.0029296875 -785.4239501953125 Z" stroke="none" fill="#393939"/>
    </g>
    <path id="パス_100" data-name="パス 100" d="M7.085,0,0,7.111" transform="translate(5385.311 -812.387) rotate(26)" fill="none" stroke="#393939" stroke-linecap="round" stroke-width="2"/>
    <path id="パス_102" data-name="パス 102" d="M7.085,7.111,0,0" transform="translate(5380.641 -815.647) rotate(-45)" fill="none" stroke="#393939" stroke-linecap="round" stroke-width="2"/>
    <path id="パス_103" data-name="パス 103" d="M7.085,7.111,0,0" transform="translate(5435.048 -815.647) rotate(-45)" fill="none" stroke="#393939" stroke-linecap="round" stroke-width="2"/>
    <path id="パス_104" data-name="パス 104" d="M5399.655-816.63a11.665,11.665,0,0,1,3.454-7.946,9.84,9.84,0,0,1,7.157-2.791" transform="translate(2.59 0.991)" fill="none" stroke="#393939" stroke-linecap="round" stroke-width="2"/>
    <path id="パス_105" data-name="パス 105" d="M7.085,7.111,0,0" transform="matrix(0.899, -0.438, 0.438, 0.899, 5382.194, -825.281)" fill="none" stroke="#393939" stroke-linecap="round" stroke-width="2"/>
    <path id="パス_106" data-name="パス 106" d="M7.085,7.111,0,0" transform="matrix(-0.899, 0.438, -0.438, -0.899, 5443.679, -805.996)" fill="none" stroke="#393939" stroke-linecap="round" stroke-width="2"/>
    <path id="パス_107" data-name="パス 107" d="M7.085,0,0,7.111" transform="matrix(-0.899, -0.438, 0.438, -0.899, 5440.562, -818.89)" fill="none" stroke="#393939" stroke-linecap="round" stroke-width="2"/>
  </g>
</svg>
