<svg xmlns="http://www.w3.org/2000/svg" xmlns:xlink="http://www.w3.org/1999/xlink" width="70.522" height="70.524" viewBox="0 0 70.522 70.524">
  <defs>
    <linearGradient id="linear-gradient" x1="-0.022" y1="0.5" x2="1.022" y2="0.5" gradientUnits="objectBoundingBox">
      <stop offset="0" stop-color="#f0f7fd"/>
      <stop offset="1" stop-color="#fffbe3"/>
    </linearGradient>
  </defs>
  <g id="iocn-features10" transform="translate(6868.732 1417.371)">
    <g id="パス_76" data-name="パス 76" transform="translate(-6934.427 -1468.354)" stroke-linecap="round" stroke-linejoin="round" fill="url(#linear-gradient)">
      <path d="M 105.0983657836914 120.5064697265625 L 104.1988296508789 120.5064697265625 L 97.70401000976562 120.5064697265625 L 96.80283355712891 120.5064697265625 L 96.70939636230469 119.6101531982422 L 95.92745971679688 112.1097030639648 C 95.84409332275391 111.3270568847656 95.27533721923828 110.6637649536133 94.51242828369141 110.4614028930664 C 92.37358856201172 109.8929595947266 90.31920623779297 109.0413436889648 88.40586853027344 107.9300842285156 C 88.11185455322266 107.7587738037109 87.77816009521484 107.6686096191406 87.43961334228516 107.6686096191406 C 87.00091552734375 107.6686096191406 86.57176971435547 107.8206939697266 86.23123931884766 108.0968551635742 L 80.36124420166016 112.8383941650391 L 79.66166687011719 113.4034881591797 L 79.02576446533203 112.7675857543945 L 74.43330383300781 108.1751174926758 L 73.79678344726562 107.5385971069336 L 74.36311340332031 106.8388824462891 L 79.10342407226562 100.9820785522461 C 79.602294921875 100.3661346435547 79.66909027099609 99.49270629882812 79.26983642578125 98.80838775634766 C 78.15988922119141 96.89374542236328 77.30912017822266 94.84114837646484 76.73977661132812 92.70520782470703 C 76.536865234375 91.94235229492188 75.87359619140625 91.37412261962891 75.08915710449219 91.29073333740234 L 67.58868408203125 90.49319458007812 L 66.69441986083984 90.39811706542969 L 66.69441986083984 89.49880981445312 L 66.69441986083984 83.00594329833984 L 66.69441986083984 82.10663604736328 L 67.58868408203125 82.01155853271484 L 75.08915710449219 81.21402740478516 C 75.87359619140625 81.13062286376953 76.536865234375 80.56239318847656 76.73963928222656 79.80005645751953 C 77.30915832519531 77.66165924072266 78.16060638427734 75.60701751708984 79.27040863037109 73.69288635253906 C 79.6710205078125 73.00621795654297 79.60424041748047 72.13279724121094 79.1055908203125 71.51715850830078 L 74.36272430419922 65.64985656738281 L 73.79729461669922 64.95037841796875 L 74.43315887451172 64.31424713134766 L 79.02368927001953 59.72177505493164 L 79.66051483154297 59.08468627929688 L 80.36045074462891 59.65173721313477 L 86.22113037109375 64.39980316162109 C 86.56208038330078 64.67631530761719 86.99119567871094 64.82840728759766 87.42981719970703 64.82837677001953 C 87.76844024658203 64.82834625244141 88.10215759277344 64.73817443847656 88.39490509033203 64.56759643554688 C 90.30656433105469 63.453857421875 92.35957336425781 62.59950637817383 94.49697875976562 62.02827453613281 C 95.26172637939453 61.82543563842773 95.83049011230469 61.16214752197266 95.91407775878906 60.37728500366211 L 96.70958709716797 52.87726593017578 L 96.80446624755859 51.98274612426758 L 97.70401000976562 51.98274612426758 L 104.2027206420898 51.98274612426758 L 105.1030654907227 51.98274612426758 L 105.1972351074219 52.87815475463867 L 105.9850158691406 60.36887741088867 C 106.0682983398438 61.15217590332031 106.6365356445312 61.81546783447266 107.3988800048828 62.01823425292969 C 109.5375442504883 62.58682632446289 111.5924682617188 63.43837738037109 113.5064468383789 64.54921722412109 C 113.8007659912109 64.720703125 114.1344451904297 64.81088256835938 114.4728851318359 64.81086730957031 C 114.9116668701172 64.81083679199219 115.3408355712891 64.65874481201172 115.6813278198242 64.38260650634766 L 121.5492553710938 59.64118576049805 L 122.2488555908203 59.07589721679688 L 122.8848571777344 59.71189498901367 L 127.4773178100586 64.30435943603516 L 128.1133117675781 64.94036865234375 L 127.5480194091797 65.63995361328125 L 122.8077087402344 71.50648498535156 C 122.3075332641602 72.12328338623047 122.2402267456055 72.99671936035156 122.6391143798828 73.6812744140625 C 123.7518005371094 75.59698486328125 124.6034545898438 77.65283966064453 125.1711349487305 79.79294586181641 C 125.3739242553711 80.55502319335938 126.037727355957 81.12327575683594 126.8227233886719 81.20618438720703 L 134.3219604492188 82.00377655029297 L 135.2162017822266 82.09888458251953 L 135.2162017822266 82.9981689453125 L 135.2162017822266 89.49298858642578 L 135.2162017822266 90.39227294921875 L 134.3219604492188 90.48737335205078 L 126.8234481811523 91.28487396240234 C 126.0377349853516 91.36787414550781 125.3739242553711 91.93611907958984 125.1709365844727 92.69895935058594 C 124.6033172607422 94.83762359619141 123.7516555786133 96.89279937744141 122.639778137207 98.8067626953125 C 122.2402191162109 99.49249267578125 122.3075180053711 100.3659133911133 122.8065872192383 100.9813079833984 L 127.5543899536133 106.829963684082 L 128.12255859375 107.5298690795898 L 127.485107421875 108.1673278808594 L 122.8926467895508 112.7597961425781 L 122.2566452026367 113.3957977294922 L 121.5570449829102 112.8305053710938 L 115.6905059814453 108.0902252197266 C 115.3485641479492 107.8129196166992 114.9194183349609 107.6608276367188 114.4807052612305 107.6608276367188 C 114.1421890258789 107.6608276367188 113.8084945678711 107.7509994506836 113.5157089233398 107.9215927124023 C 111.6003036499023 109.0359344482422 109.5440139770508 109.8902282714844 107.4033889770508 110.4610748291016 C 106.6404342651367 110.6640167236328 106.0722045898438 111.3273086547852 105.9887847900391 112.1117553710938 L 105.193244934082 119.611946105957 L 105.0983657836914 120.5064697265625 Z" stroke="none"/>
      <path d="M 104.1988296508789 119.5064697265625 L 104.9944000244141 112.0060195922852 C 105.122200012207 110.8041687011719 105.9777297973633 109.8055191040039 107.1457138061523 109.4948425292969 C 109.2008895874023 108.9467849731445 111.1737899780273 108.1271591186523 113.0122604370117 107.0575790405273 C 114.060302734375 106.446907043457 115.3768615722656 106.5483551025391 116.3190002441406 107.3124084472656 L 122.1855392456055 112.0526885986328 L 126.7779998779297 107.4602127075195 L 122.029899597168 101.6111831665039 C 121.265869140625 100.6690826416016 121.1644134521484 99.35250854492188 121.7751007080078 98.304443359375 C 122.8424301147461 96.4671630859375 123.6595001220703 94.49551391601562 124.2045669555664 92.44180297851562 C 124.5155258178711 91.27320861816406 125.5151290893555 90.41751861572266 126.7176895141602 90.29048919677734 L 134.2162017822266 89.49298858642578 L 134.2162017822266 82.9981689453125 L 126.7176895141602 82.20065307617188 C 125.5151290893555 82.07363891601562 124.5155258178711 81.21794891357422 124.2045669555664 80.04933929443359 C 123.6596298217773 77.99496459960938 122.8425903320312 76.02263641357422 121.7751007080078 74.18473815917969 C 121.1644134521484 73.13670349121094 121.2658767700195 71.82013702392578 122.029899597168 70.87799835205078 L 126.7702102661133 65.01146697998047 L 122.1777496337891 60.41900634765625 L 116.3112106323242 65.15930938720703 C 115.3690948486328 65.92333984375 114.0525436401367 66.02477264404297 113.0044784545898 65.41410827636719 C 111.1668167114258 64.34755706787109 109.1952438354492 63.53055572509766 107.1418151855469 62.98463439941406 C 105.9738235473633 62.67395782470703 105.1182861328125 61.6753044128418 104.9904937744141 60.47346496582031 L 104.2027206420898 52.98274612426758 L 97.70401000976562 52.98274612426758 L 96.90845489501953 60.48319625854492 C 96.78038787841797 61.68557739257812 95.9239501953125 62.68436431884766 94.75518035888672 62.99436569213867 C 92.70322418212891 63.54276657104492 90.73359680175781 64.36239624023438 88.89835357666016 65.43161773681641 C 87.85031127929688 66.04229736328125 86.53374481201172 65.94084930419922 85.59162902832031 65.17680358886719 L 79.73094940185547 60.42873764038086 L 75.14041900634766 65.02120971679688 L 79.88265991210938 70.88774871826172 C 80.64608001708984 71.83026885986328 80.74674987792969 73.14679718017578 80.13551330566406 74.19447326660156 C 79.06981658935547 76.03253936767578 78.25284576416016 78.00398254394531 77.70603942871094 80.05710601806641 C 77.39537048339844 81.22510528564453 76.396728515625 82.08064270019531 75.19488525390625 82.20841979980469 L 67.69441986083984 83.00594329833984 L 67.69441986083984 89.49880981445312 L 75.19487762451172 90.29633331298828 C 76.396728515625 90.42410278320312 77.39537048339844 91.27963256835938 77.70603942871094 92.44764709472656 C 78.25273895263672 94.4986572265625 79.06901550292969 96.46810913085938 80.13359069824219 98.30445861816406 C 80.74481964111328 99.35212707519531 80.64412689208984 100.6686553955078 79.88072967529297 101.611198425293 L 75.14041900634766 107.4680023193359 L 79.73287963867188 112.0604782104492 L 85.60135650634766 107.3201675415039 C 86.54348754882812 106.5561294555664 87.86006164550781 106.4546890258789 88.90809631347656 107.0653533935547 C 90.74494934082031 108.1321868896484 92.71588897705078 108.94921875 94.76880645751953 109.4948272705078 C 95.93755340576172 109.8048324584961 96.79399871826172 110.8036346435547 96.92206573486328 112.0060195922852 L 97.70401000976562 119.5064697265625 L 104.1988296508789 119.5064697265625 M 104.1988296508789 121.5064697265625 L 97.70401000976562 121.5064697265625 C 96.67972564697266 121.5064697265625 95.82099914550781 120.7326049804688 95.71479034423828 119.7138442993164 L 94.93284606933594 112.2133941650391 C 94.893310546875 111.8422393798828 94.62113952636719 111.5248184204102 94.25603485107422 111.427978515625 C 92.03079986572266 110.8365631103516 89.89385986328125 109.9507369995117 87.90364074707031 108.7948226928711 C 87.76107788085938 108.7117538452148 87.60146331787109 108.6686096191406 87.43961334228516 108.6686096191406 C 87.22953033447266 108.6686096191406 87.02408599853516 108.7413864135742 86.86111450195312 108.8735427856445 L 80.98961639404297 113.6163024902344 C 80.19404602050781 114.2589645385742 79.04180908203125 114.1978607177734 78.31865692138672 113.4746856689453 L 73.7261962890625 108.8822174072266 C 73.00251770019531 108.1585388183594 72.94194030761719 107.0052871704102 73.58580780029297 106.2097549438477 L 78.32611846923828 100.3529434204102 C 78.565185546875 100.0577774047852 78.59716033935547 99.63979339599609 78.40609741210938 99.31230926513672 C 78.40516662597656 99.31071472167969 78.40423583984375 99.30912780761719 78.4033203125 99.30752563476562 C 77.25040435791016 97.31880950927734 76.36561584472656 95.18411254882812 75.77350616455078 92.9627685546875 C 75.67620849609375 92.59694671630859 75.35881805419922 92.32503509521484 74.98344421386719 92.28512573242188 L 67.48294830322266 91.48759460449219 C 66.46596527099609 91.37945556640625 65.69441986083984 90.52151489257812 65.69441986083984 89.49880981445312 L 65.69441986083984 83.00594329833984 C 65.69441986083984 81.98323822021484 66.46596527099609 81.12529754638672 67.48294830322266 81.01715850830078 L 74.98341369628906 80.21962738037109 C 75.35881805419922 80.17971801757812 75.67620849609375 79.90780639648438 75.77323913574219 79.54301452636719 C 76.36561584472656 77.31878662109375 77.25111389160156 75.18197631835938 78.40529632568359 73.19130706787109 C 78.40620422363281 73.18974304199219 78.4071044921875 73.18818664550781 78.40802001953125 73.18663787841797 C 78.59909057617188 72.85913848876953 78.56712341308594 72.44116973876953 78.32851409912109 72.14656829833984 L 73.58503723144531 66.27850341796875 C 72.94204711914062 65.48306274414062 73.00281524658203 64.3306884765625 73.72590637207031 63.60729598999023 L 78.31643676757812 59.01482772827148 C 79.04032897949219 58.29061508178711 80.19429779052734 58.23014068603516 80.98993682861328 58.87472534179688 L 86.85061645507812 63.62279510498047 C 87.01437377929688 63.75560760498047 87.21977996826172 63.82838439941406 87.42976379394531 63.82837677001953 C 87.59169006347656 63.82836532592773 87.75135040283203 63.78520584106445 87.89143371582031 63.70357513427734 C 89.87997436523438 62.54504776000977 92.01549530029297 61.65637588500977 94.23878479003906 61.06217575073242 C 94.60752868652344 60.96437454223633 94.87969970703125 60.64695739746094 94.91970825195312 60.27136611938477 L 95.71516418457031 52.77179718017578 C 95.82305908203125 51.75459671020508 96.68109893798828 50.98274612426758 97.70401000976562 50.98274612426758 L 104.2027206420898 50.98274612426758 C 105.2263107299805 50.98274612426758 106.0846862792969 51.75558471679688 106.1917495727539 52.77356719970703 L 106.9795303344727 60.26428604125977 C 107.0191955566406 60.63739776611328 107.291130065918 60.95480728149414 107.6559295654297 61.05184555053711 C 109.8802795410156 61.64320755004883 112.0176467895508 62.52892684936523 114.0084075927734 63.6843376159668 C 114.1515197753906 63.76771545410156 114.3110961914062 63.81087493896484 114.4728393554688 63.81086730957031 C 114.6829986572266 63.81084442138672 114.8885040283203 63.73806762695312 115.0514678955078 63.60590744018555 L 120.9207534790039 58.86337661743164 C 121.7163391113281 58.22053146362305 122.8687362670898 58.28155136108398 123.5919570922852 59.00479507446289 L 128.1844177246094 63.59725570678711 C 128.9076690673828 64.32049560546875 128.9686737060547 65.47288513183594 128.3258361816406 66.26845550537109 L 123.5855255126953 72.13498687744141 C 123.3444671630859 72.43224334716797 123.3122482299805 72.85022735595703 123.5031356811523 73.17781829833984 C 124.6612701416016 75.17176818847656 125.5471878051758 77.31033325195312 126.1377182006836 79.53655242919922 C 126.2344589233398 79.90010833740234 126.552116394043 80.17204284667969 126.9277648925781 80.21171569824219 L 134.427734375 81.00938415527344 C 135.4446716308594 81.11754608154297 136.2162017822266 81.97547912597656 136.2162017822266 82.9981689453125 L 136.2162017822266 89.49298858642578 C 136.2162017822266 90.51567840576172 135.4446716308594 91.37361907958984 134.427734375 91.48176574707031 L 126.9292068481445 92.27926635742188 C 126.552116394043 92.31910705566406 126.2344589233398 92.59103393554688 126.1373062133789 92.95610809326172 C 125.547004699707 95.18023681640625 124.6610794067383 97.31810760498047 123.5044555664062 99.30908966064453 C 123.312255859375 99.63895416259766 123.3444595336914 100.0569381713867 123.5832748413086 100.3514175415039 L 128.3307800292969 106.19970703125 C 128.9765014648438 106.9951629638672 128.9166717529297 108.1499557495117 128.1922149658203 108.8744277954102 L 123.5997543334961 113.4668960571289 C 122.8765182495117 114.1901397705078 121.7241287231445 114.2511672973633 120.9285583496094 113.6083145141602 L 115.0620193481445 108.868034362793 C 114.8962554931641 108.7336196899414 114.6907958984375 108.6608276367188 114.4807052612305 108.6608276367188 C 114.3188781738281 108.6608276367188 114.1592788696289 108.7039794921875 114.019157409668 108.7856292724609 C 112.0263442993164 109.9449996948242 109.887565612793 110.8335571289062 107.6610565185547 111.4273147583008 C 107.2950134277344 111.5246734619141 107.0231094360352 111.8420867919922 106.9831848144531 112.2174987792969 L 106.1876678466797 119.7174224853516 C 106.0797805786133 120.7346267700195 105.2217407226562 121.5064697265625 104.1988296508789 121.5064697265625 Z" stroke="none" fill="#393939"/>
    </g>
    <path id="パス_108" data-name="パス 108" d="M306.69-480.91h0l-.722-3.193,1.438-3.025,6.6-5.913,1.784,1.641,1.068-1.641-1.068-1.449,2-1.789,5.56,5.918L321.9-488.8l-2.375-.557-.934,1.251,1.871,1.911-1.871,1.426,5.2,4.358,4.672-5.2-1.333-4.748,5.1-5.157,3.6,1.028-4.145,4.129,1.1,3.625,3.446.542,4.123-4.166.787,4.166-5.315,5.285-5.011-1.565-3.685,5.2,9.1,7.471.526,2.491-.932,2.65-2.585.674-2.425-.674-7.467-8.79-6.492,8.79-2.852.674-2.241-1.227-.693-2.574,1.516-2.65,7.877-7.542-4.193-4.491L314-480.411l-3.548-3.692-3.767,3.692" transform="translate(-7157.472 -901.609)" fill="#fff"/>
    <g id="グループ_34" data-name="グループ 34" transform="translate(-6852.244 -1398.624)">
      <g id="グループ_29" data-name="グループ 29" transform="translate(9.363)">
        <path id="パス_68" data-name="パス 68" d="M189.882,206.823a.954.954,0,0,1-.675-.279l-3.156-3.156a.955.955,0,0,1,0-1.349l.685-.685-.346-1.6a.955.955,0,0,1,.258-.876l1.48-1.48a.955.955,0,0,1,1.349,0l5.715,5.715a.954.954,0,0,1,0,1.349l-1.48,1.48a.953.953,0,0,1-.876.258l-1.6-.346-.685.685A.944.944,0,0,1,189.882,206.823Zm-1.807-4.11,1.807,1.807.379-.379a.952.952,0,0,1,.876-.258l1.6.346.437-.437-4.366-4.366-.437.437.346,1.6a.955.955,0,0,1-.258.876Z" transform="translate(-185.773 -197.123)" fill="#393939"/>
      </g>
      <g id="グループ_30" data-name="グループ 30" transform="translate(0 2.917)">
        <path id="パス_69" data-name="パス 69" d="M118.874,233.128a.9.9,0,0,1-.1-.005.951.951,0,0,1-.7-.437,6.575,6.575,0,0,1,.9-8.116l2.964-2.89.014-.014,2.352-2.2.7-.673a.954.954,0,0,1,1.334.014l6.722,6.722a.953.953,0,0,1-.015,1.363l-6.018,5.764a.953.953,0,0,1-1.334-.014l-2.968-2.968-3.176,3.176A.957.957,0,0,1,118.874,233.128Zm3.851-5.759a.95.95,0,0,1,.675.279l2.983,2.983,4.64-4.445-5.373-5.373-.033.031-.008.007-2.348,2.2-2.948,2.875a4.661,4.661,0,0,0-1.147,4.609l2.886-2.886A.948.948,0,0,1,122.725,227.369Zm2.231-7.213Z" transform="translate(-117.067 -218.525)" fill="#393939"/>
      </g>
      <g id="グループ_31" data-name="グループ 31" transform="translate(10.325 11.947) rotate(-3)">
        <path id="パス_70" data-name="パス 70" d="M16.7,22.871a4.755,4.755,0,0,1-3.83-1.917L.2,4.236A.963.963,0,0,1,.411,2.865a1.029,1.029,0,0,1,1.411.209L14.506,19.8a.12.12,0,0,1,.01.014,2.731,2.731,0,0,0,4.083.335,2.555,2.555,0,0,0,0-3.686L3.291,1.588C.8,4.005,4.624,0,4.624,0l15.4,15.074a4.476,4.476,0,0,1,0,6.458A4.73,4.73,0,0,1,16.7,22.871Z" fill="#393939"/>
      </g>
      <g id="グループ_32" data-name="グループ 32" transform="translate(5.078 18.934)">
        <path id="パス_71" data-name="パス 71" d="M170.519,362.98A4.267,4.267,0,0,1,167.5,355.7l7.681-7.8c.379-.379,1.755,1,1.376,1.376l-7.681,7.8a2.325,2.325,0,0,0,0,3.283,2.32,2.32,0,0,0,3.453-.188l6-7.474c-3.137-4.265,2.262.289,1.985.634l-6.464,8.057a4.272,4.272,0,0,1-3.094,1.591C170.673,362.978,170.6,362.98,170.519,362.98Z" transform="translate(-166.253 -347.83)" fill="#393939"/>
      </g>
      <g id="グループ_33" data-name="グループ 33" transform="translate(17.787 0.74)">
        <path id="パス_72" data-name="パス 72" d="M256.093,234.71l4.235-4.236-1.073-4a.97.97,0,0,1,.251-.939l5.117-5.117a.971.971,0,0,1,.939-.251l3.653.98a.973.973,0,0,1,.436,1.627l-3.729,3.729.6,2.252,2.252.6,3.729-3.729a.973.973,0,0,1,1.627.436l.98,3.653a.97.97,0,0,1-.251.939l-5.117,5.117a.971.971,0,0,1-.939.251l-4.221-1.131-3.025,3.851c-.336.418-1.854-.8-1.517-1.217l3.422-4.346a.971.971,0,0,1,1.01-.331l4.292,1.15,4.322-4.322-.4-1.484-2.934,2.934a.971.971,0,0,1-.939.251l-3.337-.893a.974.974,0,0,1-.688-.688l-.893-3.337a.971.971,0,0,1,.251-.939l2.934-2.934-1.484-.4-4.323,4.322,1.073,4a.971.971,0,0,1-.251.939l-3.945,3.946C260.4,239.652,255.714,235.09,256.093,234.71Z" transform="translate(-256.071 -220.13)" fill="#393939"/>
      </g>
    </g>
  </g>
</svg>
