<svg xmlns="http://www.w3.org/2000/svg" xmlns:xlink="http://www.w3.org/1999/xlink" width="75" height="75" viewBox="0 0 75 75">
  <defs>
    <clipPath id="clip-path">
      <rect id="長方形_237" data-name="長方形 237" width="75" height="75" transform="translate(-3450 10268)" fill="#fff"/>
    </clipPath>
    <linearGradient id="linear-gradient" y1="0.5" x2="1" y2="0.5" gradientUnits="objectBoundingBox">
      <stop offset="0" stop-color="#f0f7fd"/>
      <stop offset="1" stop-color="#fffbe3"/>
    </linearGradient>
  </defs>
  <g id="iocn-features04" transform="translate(3450 -10268)" clip-path="url(#clip-path)">
    <g id="グループ_59" data-name="グループ 59" transform="translate(-141 10922)">
      <path id="パス_51" data-name="パス 51" d="M6.9-7.285c1.925,0,6.9,9.79,6.9,13.6a6.9,6.9,0,1,1-13.8,0C0,2.505,4.974-7.285,6.9-7.285Z" transform="translate(-3287.185 -605.563)" stroke="#393939" stroke-linecap="round" stroke-width="2" fill="url(#linear-gradient)"/>
      <path id="パス_52" data-name="パス 52" d="M4.386-7.285c1.224,0,4.386,6.224,4.386,8.647A4.386,4.386,0,1,1,0,1.362C0-1.061,3.162-7.285,4.386-7.285Z" transform="translate(-3264.355 -620.08)" stroke="#393939" stroke-linecap="round" stroke-width="2" fill="url(#linear-gradient)"/>
      <g id="楕円形_15" data-name="楕円形 15" transform="translate(-3282.258 -621.848)" fill="#fff" stroke="#393939" stroke-width="2">
        <circle cx="2" cy="2" r="2" stroke="none"/>
        <circle cx="2" cy="2" r="1" fill="none"/>
      </g>
      <g id="楕円形_16" data-name="楕円形 16" transform="translate(-3282.258 -631.848)" fill="#fff" stroke="#393939" stroke-width="2">
        <circle cx="2" cy="2" r="2" stroke="none"/>
        <circle cx="2" cy="2" r="1" fill="none"/>
      </g>
      <g id="楕円形_19" data-name="楕円形 19" transform="translate(-3261.607 -636.848)" fill="#fff" stroke="#393939" stroke-width="2">
        <circle cx="2" cy="2" r="2" stroke="none"/>
        <circle cx="2" cy="2" r="1" fill="none"/>
      </g>
      <g id="楕円形_17" data-name="楕円形 17" transform="translate(-3282.258 -641.848)" fill="#fff" stroke="#393939" stroke-width="2">
        <circle cx="2" cy="2" r="2" stroke="none"/>
        <circle cx="2" cy="2" r="1" fill="none"/>
      </g>
      <ellipse id="楕円形_18" data-name="楕円形 18" cx="32.5" cy="32" rx="32.5" ry="32" transform="translate(-3304 -649)" fill="none" stroke="#393939" stroke-width="2"/>
      <path id="パス_53" data-name="パス 53" d="M-6068.83-1451l45.7,45.7" transform="translate(2774.854 811.152)" fill="none" stroke="#393939" stroke-width="2"/>
    </g>
  </g>
</svg>
