<svg xmlns="http://www.w3.org/2000/svg" xmlns:xlink="http://www.w3.org/1999/xlink" width="75" height="75" viewBox="0 0 75 75">
  <defs>
    <clipPath id="clip-path">
      <rect id="長方形_236" data-name="長方形 236" width="75" height="75" transform="translate(-3132 10277)" fill="#fff"/>
    </clipPath>
    <linearGradient id="linear-gradient" y1="0.5" x2="1" y2="0.5" gradientUnits="objectBoundingBox">
      <stop offset="0" stop-color="#f0f7fd"/>
      <stop offset="1" stop-color="#fffbe3"/>
    </linearGradient>
  </defs>
  <g id="iocn-features05" transform="translate(3132 -10277)" clip-path="url(#clip-path)">
    <g id="グループ_60" data-name="グループ 60" transform="translate(-73.291 10920.377)">
      <path id="パス_56" data-name="パス 56" d="M-6200.709-1675.868h64.725v20.769h-64.725Z" transform="translate(3147 1075.919)" stroke="#393939" stroke-linecap="round" stroke-width="2" fill="url(#linear-gradient)"/>
      <path id="パス_54" data-name="パス 54" d="M-6200.709-1675.868h64.725v5.245h-64.725Z" transform="translate(3147 1075.919)" fill="none" stroke="#393939" stroke-linecap="round" stroke-width="2"/>
      <path id="パス_55" data-name="パス 55" d="M-6200.709-1675.868h64.725v10.279h-64.725Z" transform="translate(3147 1081.163)" fill="none" stroke="#393939" stroke-linecap="round" stroke-width="2"/>
      <g id="グループ_18" data-name="グループ 18" transform="translate(2804.303 1073.058)">
        <path id="パス_37" data-name="パス 37" d="M-5854.175-1693.4l15.729,18.937,22.151-26.539" transform="translate(-3.054 0.696)" fill="none" stroke="#393939" stroke-width="2"/>
        <g id="パス_40" data-name="パス 40" transform="translate(-5819.917 -1704.894) rotate(39)" fill="#393939">
          <path d="M 5.632518768310547 6.355141162872314 L 0.7861665487289429 6.355141162872314 L 3.20934271812439 1.179244756698608 L 5.632518768310547 6.355141162872314 Z" stroke="none"/>
          <path d="M 3.20934271812439 2.358488082885742 L 1.572330474853516 5.855141162872314 L 4.846354961395264 5.855141162872314 L 3.20934271812439 2.358488082885742 M 3.20934271812439 1.430511474609375e-06 L 6.41868257522583 6.855141162872314 L 2.86102294921875e-06 6.855141162872314 L 3.20934271812439 1.430511474609375e-06 Z" stroke="none" fill="#393939"/>
        </g>
      </g>
      <path id="前面オブジェクトで型抜き_1" data-name="前面オブジェクトで型抜き 1" d="M1.872,29.778H0a8.591,8.591,0,0,1,2.352-5.626c1.1-1.322,1.765-2.244,1.765-3.909a5.9,5.9,0,0,0-1.651-3.759l-.114-.15-.115-.151A8.472,8.472,0,0,1,0,10.708a8.523,8.523,0,0,1,2.33-5.6l.022-.028C3.418,3.8,4.117,2.834,4.117,1.174A4.524,4.524,0,0,0,3.97,0H5.811A5.637,5.637,0,0,1,5.93,1.174,7.074,7.074,0,0,1,3.948,5.75c-.122.156-.248.318-.37.478a7.046,7.046,0,0,0-1.764,4.48,7.342,7.342,0,0,0,1.764,4.4l.2.256C4.836,16.712,5.93,18.1,5.93,20.243c0,2.159-1.108,3.571-2.18,4.936l0,.006-.168.214a6.935,6.935,0,0,0-1.706,4.378Z" transform="translate(-3009.697 -632.377)" fill="#393939"/>
      <path id="前面オブジェクトで型抜き_2" data-name="前面オブジェクトで型抜き 2" d="M1.872,29.778H0a8.591,8.591,0,0,1,2.352-5.626c1.1-1.322,1.765-2.244,1.765-3.909a5.9,5.9,0,0,0-1.651-3.759l-.114-.15-.115-.151A8.472,8.472,0,0,1,0,10.708a8.523,8.523,0,0,1,2.33-5.6l.022-.028C3.418,3.8,4.117,2.834,4.117,1.174A4.524,4.524,0,0,0,3.97,0H5.811A5.637,5.637,0,0,1,5.93,1.174,7.074,7.074,0,0,1,3.948,5.75c-.122.156-.248.318-.37.478a7.046,7.046,0,0,0-1.764,4.48,7.342,7.342,0,0,0,1.764,4.4l.2.256C4.836,16.712,5.93,18.1,5.93,20.243c0,2.159-1.108,3.571-2.18,4.936l0,.006-.168.214a6.935,6.935,0,0,0-1.706,4.378Z" transform="translate(-3002.697 -632.377)" fill="#393939"/>
      <path id="前面オブジェクトで型抜き_3" data-name="前面オブジェクトで型抜き 3" d="M1.872,29.778H0a8.591,8.591,0,0,1,2.352-5.626c1.1-1.322,1.765-2.244,1.765-3.909a5.9,5.9,0,0,0-1.651-3.759l-.114-.15-.115-.151A8.472,8.472,0,0,1,0,10.708a8.523,8.523,0,0,1,2.33-5.6l.022-.028C3.418,3.8,4.117,2.834,4.117,1.174A4.524,4.524,0,0,0,3.97,0H5.811A5.637,5.637,0,0,1,5.93,1.174,7.074,7.074,0,0,1,3.948,5.75c-.122.156-.248.318-.37.478a7.046,7.046,0,0,0-1.764,4.48,7.342,7.342,0,0,0,1.764,4.4l.2.256C4.836,16.712,5.93,18.1,5.93,20.243c0,2.159-1.108,3.571-2.18,4.936l0,.006-.168.214a6.935,6.935,0,0,0-1.706,4.378Z" transform="translate(-2995.697 -632.377)" fill="#393939"/>
    </g>
  </g>
</svg>
