<svg xmlns="http://www.w3.org/2000/svg" xmlns:xlink="http://www.w3.org/1999/xlink" width="3444.471" height="153.218" viewBox="0 0 3444.471 153.218">
  <defs>
    <clipPath id="clip-path">
      <rect y="-21.119" width="3444.471" height="153.218" fill="none"/>
    </clipPath>
    <linearGradient id="linear-gradient" x1="0.5" x2="0.5" y2="1" gradientUnits="objectBoundingBox">
      <stop offset="0" stop-color="#f0f7fd"/>
      <stop offset="0.724" stop-color="#f8f9f0"/>
      <stop offset="1" stop-color="#fffbe3"/>
    </linearGradient>
  </defs>
  <g id="スクロールグループ_3" data-name="スクロールグループ 3" transform="translate(0 21.119)" clip-path="url(#clip-path)" style="isolation: isolate">
    <path id="パス_29" data-name="パス 29" d="M107.548,20.838l-7.34-27.932H51.786L44.243,20.838H0l48.626-149.65h53.723l49.238,149.65Zm-15.7-60.961L85.427-64.589q-1.019-3.976-2.956-11.367T78.648-91.247q-1.886-7.9-2.905-13-.917,5.1-2.6,12.59T69.677-76.822q-1.784,7.34-3.109,12.233L60.146-40.123Zm141.6,60.961H193.18V-95.274H156.786V-128.2H269.738v32.927H233.447Zm57.6,0V-128.2h40.267V-11.682H388.7V20.838Zm212.956,0L496.66-7.094H448.238l-7.544,27.932H396.451l48.626-149.65H498.8l49.238,149.65ZM488.3-40.123l-6.422-24.466q-1.019-3.976-2.956-11.367T475.1-91.247q-1.886-7.9-2.905-13-.917,5.1-2.6,12.59t-3.466,14.833q-1.784,7.34-3.109,12.233L456.6-40.123Zm173.3,15.7a46.13,46.13,0,0,1-6.116,22.988Q649.369,9.42,636.473,16.148t-33.284,6.728a153.085,153.085,0,0,1-17.891-.917,78.439,78.439,0,0,1-14.323-3.007A109.932,109.932,0,0,1,557.213,13.5V-22.386a123.3,123.3,0,0,0,24.466,9.328A89.438,89.438,0,0,0,604-9.847a28.548,28.548,0,0,0,9.837-1.427A11.969,11.969,0,0,0,619.5-15.2a9.471,9.471,0,0,0,1.835-5.76,8.949,8.949,0,0,0-2.7-6.575,33.824,33.824,0,0,0-8.614-5.658q-5.913-2.956-15.6-7.34a155.041,155.041,0,0,1-14.934-7.951A51.179,51.179,0,0,1,568.07-57.81a36.836,36.836,0,0,1-7.289-12.284,48.8,48.8,0,0,1-2.549-16.616q0-14.374,7.085-24.109t19.777-14.629q12.692-4.893,29.308-4.893a97.539,97.539,0,0,1,26.25,3.262,148.212,148.212,0,0,1,20.949,7.442L649.267-88.546a129.2,129.2,0,0,0-18.859-6.983,64.117,64.117,0,0,0-17.228-2.6,24.029,24.029,0,0,0-8.512,1.274,10.61,10.61,0,0,0-4.893,3.415,8.026,8.026,0,0,0-1.58,4.893,8.659,8.659,0,0,0,2.7,6.218q2.7,2.752,9.073,5.964t17.381,8.308A99.98,99.98,0,0,1,645.9-57.5a38.564,38.564,0,0,1,11.672,13.558Q661.6-36.046,661.6-24.424ZM827.359,20.838H738.873V-128.2h88.485v32.316H779.14v23.447h44.65v32.316H779.14v28.136h48.218Zm91.034,0L887.912-86.507h-.917q.408,4.18.867,11.316t.867,15.393q.408,8.257.408,15.9V20.838h-35.68V-128.2h53.621L938.169-22.386h.815L969.466-128.2h53.723V20.838h-37V-44.507q0-7.034.255-15.138t.612-15.291q.357-7.187.663-11.367H986.8L956.723,20.838ZM1055.3-128.2h51.99q32.316,0,46.078,9.583t13.762,27.524q0,9.786-3.517,16.617a30.62,30.62,0,0,1-8.869,10.806,31.379,31.379,0,0,1-10.959,5.4v1.019a47.036,47.036,0,0,1,12.182,5.046,27.838,27.838,0,0,1,10.092,10.5q4.027,6.983,4.027,18.91,0,13.558-6.881,23.345t-19.624,15.036q-12.743,5.25-30.277,5.25h-58Zm40.267,57.189H1107.7q9.99,0,14.068-4.129a13.755,13.755,0,0,0,4.078-10.041,10.637,10.637,0,0,0-4.638-9.328q-4.638-3.211-14.323-3.211h-11.316Zm0,29.461v31.3h14.17q10.5,0,14.68-4.536a16.132,16.132,0,0,0,4.18-11.367,16.335,16.335,0,0,0-1.784-7.493,13.258,13.258,0,0,0-6.066-5.709q-4.282-2.192-11.825-2.192Zm188.9,62.388H1195.98V-128.2h88.485v32.316h-48.218v23.447h44.65v32.316h-44.65v28.136h48.218Zm152.607-77.68q0,26-9.684,43.223a61.846,61.846,0,0,1-27.269,25.842q-17.585,8.614-41.337,8.614h-48.218V-128.2h51.583q24.058,0,40.777,8.257a57.039,57.039,0,0,1,25.434,24.16Q1437.072-79.881,1437.072-56.842Zm-41.8,1.427q0-13.558-3.619-22.478A26.945,26.945,0,0,0,1380.8-91.247q-7.238-4.434-18.248-4.434h-11.723v83.49h8.971q18.349,0,26.913-10.653T1395.276-55.415Zm195.014-1.427q0,26-9.684,43.223a61.846,61.846,0,0,1-27.269,25.842q-17.585,8.614-41.337,8.614h-48.218V-128.2h51.583q24.058,0,40.777,8.257a57.041,57.041,0,0,1,25.434,24.16Q1590.291-79.881,1590.291-56.842Zm-41.8,1.427q0-13.558-3.619-22.478a26.945,26.945,0,0,0-10.857-13.354q-7.238-4.434-18.248-4.434h-11.723v83.49h8.971q18.35,0,26.913-10.653T1548.495-55.415Zm156.99,76.252H1617V-128.2h88.485v32.316h-48.218v23.447h44.651v32.316h-44.651v28.136h48.218Zm152.607-77.68q0,26-9.684,43.223a61.846,61.846,0,0,1-27.269,25.842q-17.585,8.614-41.337,8.614h-48.218V-128.2h51.583q24.058,0,40.777,8.257a57.039,57.039,0,0,1,25.434,24.16Q1858.091-79.881,1858.091-56.842Zm-41.8,1.427q0-13.558-3.619-22.478a26.946,26.946,0,0,0-10.857-13.354q-7.238-4.434-18.248-4.434h-11.723v83.49h8.971q18.35,0,26.913-10.653T1816.3-55.415Zm188.49,76.252h-40.267V-95.274h-36.393V-128.2h112.951v32.927h-36.291ZM2111.213-128.2q20.286,0,33.743,4.944t20.235,14.731q6.779,9.786,6.779,24.364a43.059,43.059,0,0,1-3.058,16.515,41.976,41.976,0,0,1-8.716,13.3A57.706,57.706,0,0,1,2146.688-44.1l43.427,64.937h-45.67l-31.6-54.233H2102.65V20.838h-40.267V-128.2ZM2110.6-97.72h-7.951v34.049h7.543q9.277,0,15.189-4.078t5.913-14.578q0-7.238-4.893-11.316T2110.6-97.72ZM2295.115,20.838l-7.34-27.932h-48.422l-7.544,27.932h-44.243l48.626-149.65h53.723l49.238,149.65Zm-15.7-60.961-6.422-24.466q-1.02-3.976-2.956-11.367t-3.823-15.291q-1.886-7.9-2.906-13-.917,5.1-2.6,12.59t-3.466,14.833q-1.784,7.34-3.109,12.233l-6.422,24.466Zm115.5,60.961h-39.656V-128.2h88.078v32.316h-48.422v28.442h44.65v32.316h-44.65Zm112.543,0H2467.8V-128.2h88.078v32.316H2507.46v28.442h44.651v32.316H2507.46Zm72.888,0V-128.2h40.471V20.838ZM2719.4-97.313a26.533,26.533,0,0,0-12.743,3.007,27.473,27.473,0,0,0-9.583,8.716,42.484,42.484,0,0,0-6.065,13.915,75.574,75.574,0,0,0-2.09,18.6q0,14.068,3.568,23.65t10.857,14.476q7.289,4.893,18.3,4.893a66.853,66.853,0,0,0,19.216-2.752,194.115,194.115,0,0,0,18.6-6.626V14.619a91.205,91.205,0,0,1-20.235,6.32,119.313,119.313,0,0,1-21.969,1.937q-24.262,0-39.706-9.633a57.086,57.086,0,0,1-22.733-26.76q-7.289-17.126-7.289-39.757a96.56,96.56,0,0,1,4.74-30.99,70.019,70.019,0,0,1,13.915-24.415,61.654,61.654,0,0,1,22.682-16q13.507-5.658,30.939-5.658a111.728,111.728,0,0,1,22.784,2.5,101.363,101.363,0,0,1,23.4,8l-12.335,31.7a130.142,130.142,0,0,0-16.514-6.524A58.35,58.35,0,0,0,2719.4-97.313Zm123.35,118.15V-128.2h40.267V-11.682h57.393V20.838Zm121.514,0V-128.2h40.471V20.838Zm132.524-87.262h64.325v80.33a165,165,0,0,1-26.4,6.473,188.329,188.329,0,0,1-31.194,2.5q-21.51,0-37.719-8.359a58.773,58.773,0,0,1-25.281-25.434q-9.073-17.075-9.073-43.172,0-23.447,8.971-40.522a62.187,62.187,0,0,1,26.454-26.4q17.483-9.328,42.866-9.328a127.933,127.933,0,0,1,26.5,2.65,111.978,111.978,0,0,1,21.815,6.728l-12.743,31.6a76.079,76.079,0,0,0-16.719-5.964,83.318,83.318,0,0,0-18.655-1.988q-13.355,0-21.459,6.015A34.011,34.011,0,0,0,3076.7-75.242a64.173,64.173,0,0,0-3.67,22.172q0,13.864,3.925,23.4a30.555,30.555,0,0,0,11.52,14.476q7.594,4.944,18.4,4.944,3.568,0,8.716-.51a51.763,51.763,0,0,0,7.8-1.223V-35.332h-26.607Zm222.437,87.262h-40.471V-39.92H3231.96V20.838h-40.471V-128.2h40.471v55.252h46.791V-128.2h40.471Zm97.966,0h-40.267V-95.274h-36.393V-128.2h112.951v32.927h-36.291Z" transform="translate(-10.004 109.223)" fill="url(#linear-gradient)"/>
  </g>
</svg>
