<svg xmlns="http://www.w3.org/2000/svg" width="2800.186" height="124.761" viewBox="0 0 2800.186 124.761">
  <path id="パス_33" data-name="パス 33" d="M87.573,0,81.6-22.744H42.168L36.025,0H0L39.595-121.855H83.34L123.433,0ZM74.79-49.639,69.561-69.561Q67.734-76.2,65.12-86.743t-3.445-15.107q-.747,4.233-2.947,13.945T48.975-49.639ZM178.218,0H145.43V-94.546H115.8v-26.812h91.973v26.812H178.218Zm46.9,0V-121.357h32.788v94.878h46.733V0Zm173.4,0-5.977-22.744H353.115L346.973,0H310.947l39.595-121.855h43.745L434.38,0ZM385.737-49.639l-5.229-19.922q-1.826-6.641-4.441-17.183t-3.445-15.107q-.747,4.233-2.947,13.945t-9.753,38.267ZM526.851-36.855a35.8,35.8,0,0,1-5.728,20.046A37.506,37.506,0,0,1,504.6-3.2Q493.813,1.66,479.287,1.66a102.427,102.427,0,0,1-20.337-1.7,75.5,75.5,0,0,1-17.1-5.935V-35.2a97.65,97.65,0,0,0,19.507,7.512,72.686,72.686,0,0,0,18.594,2.7q7.3,0,10.708-2.532a7.783,7.783,0,0,0,3.4-6.516,7.171,7.171,0,0,0-1.37-4.358,15.948,15.948,0,0,0-4.4-3.777q-3.03-1.909-16.145-7.8-11.87-5.4-17.805-10.459a32.11,32.11,0,0,1-8.8-11.621,38.573,38.573,0,0,1-2.864-15.522q0-16.768,12.2-26.147t33.535-9.38q18.843,0,38.433,8.716L516.807-89.067q-17.017-7.8-29.385-7.8-6.392,0-9.3,2.241a6.781,6.781,0,0,0-2.905,5.562q0,3.569,3.694,6.392T498.96-72.383q15.688,7.056,21.79,15.149T526.851-36.855ZM661.821,0H589.771V-121.357h72.051v26.313H622.559v19.092h36.357v26.313H622.559v22.91h39.263Zm74.126,0L711.128-87.407h-.747q1.743,22.329,1.743,34.7V0H683.071V-121.357h43.662L752.051-35.2h.664l24.819-86.162h43.745V0H791.147V-53.208q0-4.15.125-9.214t1.121-24.819h-.747L767.158,0ZM847.427-121.357h42.334q24.736,0,36.731,7.346t11.995,22.869q0,10.21-5.229,17.432a23.326,23.326,0,0,1-13.779,9.3v.83q11.289,2.988,16.353,9.961t5.063,18.1q0,16.519-12.41,26.023T894.658,0H847.427ZM880.215-74.79h9.878q7.056,0,10.916-2.905t3.86-8.633q0-10.21-15.439-10.21h-9.214Zm0,23.989v25.483h11.538q15.356,0,15.356-12.949,0-6.06-4.109-9.3T891.089-50.8ZM1034.028,0H961.978V-121.357h72.051v26.313H994.766v19.092h36.357v26.313H994.766v22.91h39.263Zm124.263-63.252q0,30.381-16.726,46.816T1094.541,0h-39.263V-121.357h42q29.219,0,45.115,14.941T1158.291-63.252Zm-34.033,1.162q0-16.685-6.6-24.736t-20.046-8.052h-9.546v67.983h7.3q14.941,0,21.914-8.674T1124.258-62.09Zm158.794-1.162q0,30.381-16.726,46.816T1219.3,0h-39.263V-121.357h42q29.219,0,45.115,14.941T1283.052-63.252Zm-34.033,1.162q0-16.685-6.6-24.736t-20.046-8.052h-9.546v67.983h7.3q14.941,0,21.914-8.674T1249.019-62.09ZM1376.851,0H1304.8V-121.357h72.051v26.313h-39.263v19.092h36.357v26.313h-36.357v22.91h39.263Zm124.263-63.252q0,30.381-16.726,46.816T1437.363,0H1398.1V-121.357h42q29.219,0,45.115,14.941T1501.113-63.252ZM1467.08-62.09q0-16.685-6.6-24.736t-20.046-8.052h-9.546v67.983h7.3q14.941,0,21.914-8.674T1467.08-62.09ZM1620.562,0h-32.788V-94.546H1558.14v-26.812h91.973v26.812h-29.551Zm79.688-44.16V0h-32.788V-121.357h39.761q49.473,0,49.473,35.859,0,21.084-20.586,32.622L1771.47,0h-37.187L1708.55-44.16Zm0-24.653h6.143q17.183,0,17.183-15.19,0-12.534-16.851-12.534h-6.475ZM1856.968,0l-5.977-22.744h-39.429L1805.42,0h-36.025l39.595-121.855h43.745L1892.827,0Zm-12.783-49.639-5.229-19.922q-1.826-6.641-4.441-17.183t-3.445-15.107q-.747,4.233-2.947,13.945t-9.753,38.267ZM1938.232,0h-32.29V-121.357h71.719v26.313h-39.429v23.159h36.357v26.313h-36.357Zm91.641,0h-32.29V-121.357H2069.3v26.313h-39.429v23.159h36.357v26.313h-36.357Zm59.351,0V-121.357h32.954V0Zm113.223-96.206a20.908,20.908,0,0,0-18.262,9.587q-6.558,9.587-6.558,26.438,0,35.029,26.646,35.029a54.572,54.572,0,0,0,15.605-2.241,156.113,156.113,0,0,0,15.19-5.4V-5.063Q2219.878,1.66,2200.7,1.66q-27.476,0-42.126-15.937t-14.651-46.069q0-18.843,7.1-33.12a50.781,50.781,0,0,1,20.42-21.956q13.323-7.678,31.335-7.678a86.322,86.322,0,0,1,37.6,8.55l-10.044,25.815a112.926,112.926,0,0,0-13.447-5.312A47,47,0,0,0,2202.446-96.206ZM2302.886,0V-121.357h32.788v94.878h46.733V0Zm98.945,0V-121.357h32.954V0Zm107.91-71.055h52.378v65.41q-21.333,7.3-46.9,7.3-28.057,0-43.372-16.27t-15.315-46.4q0-29.385,16.768-45.737t46.982-16.353a104,104,0,0,1,21.624,2.158,91.32,91.32,0,0,1,17.722,5.479l-10.376,25.732a64.168,64.168,0,0,0-28.8-6.475q-14.36,0-22.2,9.338T2490.4-60.181q0,17.017,7.1,25.94t20.461,8.923a60.059,60.059,0,0,0,13.447-1.411V-45.737h-21.665ZM2690.864,0H2657.91V-49.473h-38.1V0h-32.954V-121.357h32.954v44.99h38.1v-44.99h32.954Zm79.771,0h-32.788V-94.546h-29.634v-26.812h91.973v26.812h-29.551Z" transform="translate(0 123.101)" fill="#fff"/>
</svg>
